<?xml version="1.0" standalone="no"?><!DOCTYPE svg PUBLIC "-//W3C//DTD SVG 1.1//EN" "http://www.w3.org/Graphics/SVG/1.1/DTD/svg11.dtd"><svg t="1596266257498" class="icon" viewBox="0 0 1024 1024" version="1.1" xmlns="http://www.w3.org/2000/svg" p-id="3707" xmlns:xlink="http://www.w3.org/1999/xlink" width="200" height="200"><defs><style type="text/css"></style></defs><path d="M178.062222 1024h734.634667C975.018667 1024 1024 984.888889 1024 935.111111V597.333333H0v284.444445c0 78.222222 80.128 142.222222 178.062222 142.222222z" fill="#BAE7FF" p-id="3708"></path><path d="M676.721778 1024H111.303111C48.981333 1024 0 983.779556 0 932.579556V91.420444C0 40.220444 48.981333 0 111.303111 0H908.231111C975.018667 0 1024 40.220444 1024 91.420444V742.4L676.721778 1024z" fill="#69C0FF" p-id="3709"></path><path d="M682.666667 1024v-214.243556c0-36.977778 35.470222-70.200889 84.224-70.200888H1024L682.666667 1024z" fill="#1890FF" p-id="3710"></path><path d="M216.177778 682.666667h591.644444c27.306667 0 45.511111-14.620444 45.511111-36.579556 0-21.930667-18.204444-36.551111-45.511111-36.551111H216.177778c-27.306667 0-45.511111 14.620444-45.511111 36.551111C170.666667 668.046222 188.871111 682.666667 216.177778 682.666667z m364.088889-182.869334h227.555555c27.306667 0 45.511111-14.620444 45.511111-36.551111 0-21.959111-18.204444-36.579556-45.511111-36.579555h-227.555555c-27.306667 0-45.511111 14.620444-45.511111 36.579555 0 21.930667 18.204444 36.551111 45.511111 36.551111zM218.083556 483.555556h189.610666c28.444444 0 47.416889-14.620444 47.416889-36.579556V264.135111C455.111111 242.176 436.138667 227.555556 407.694222 227.555556H218.083556C189.639111 227.555556 170.666667 242.176 170.666667 264.135111v182.840889C170.666667 468.935111 189.639111 483.555556 218.083556 483.555556zM585.130667 284.444444h223.516444C835.413333 284.444444 853.333333 273.066667 853.333333 256s-17.891556-28.444444-44.686222-28.444444H585.102222C558.364444 227.555556 540.444444 238.933333 540.444444 256s17.891556 28.444444 44.686223 28.444444z" fill="#BAE7FF" p-id="3711"></path></svg>